<svg width="130" height="128" viewBox="0 0 130 128" fill="none" xmlns="http://www.w3.org/2000/svg">
<g clip-path="url(#clip0_117_92)">
<path d="M66.7915 123.356C64.6958 123.356 62.6001 123.222 60.5044 123.02C45.1586 121.405 31.4353 113.868 21.7005 101.956C11.9657 90.0442 7.63911 75.0368 9.26157 59.7603C10.884 44.4837 18.4555 30.8223 30.4212 21.1314C42.3869 11.4406 57.4623 7.13354 72.8081 8.74868C88.1539 10.3638 101.877 17.9011 111.612 29.8128C121.347 41.7245 125.673 56.7319 124.051 72.0084C122.428 87.285 114.857 100.946 102.891 110.637C92.5481 118.982 79.9064 123.356 66.7915 123.356ZM66.5887 10.4984C53.947 10.4984 41.7785 14.7382 31.7733 22.7466C20.1456 32.0336 12.9121 45.2913 11.3573 60.0294C9.73479 74.7676 14.0614 89.2366 23.3905 100.744C32.7197 112.252 46.0374 119.52 60.7748 121.068C62.8029 121.27 64.7634 121.405 66.7915 121.405C94.8466 121.405 119.048 100.273 122.09 71.8738C123.713 57.1356 119.386 42.6667 110.057 31.1588C100.728 19.6509 87.4103 12.3827 72.6729 10.8349C70.6448 10.5657 68.6167 10.4984 66.5887 10.4984Z" fill="#010101"/>
<path d="M72.4025 120.126C70.3068 120.126 68.2111 119.992 66.1154 119.79C34.4774 116.425 11.4925 88.0252 14.8726 56.53C18.2527 25.0347 46.7811 2.15353 78.4191 5.51841C93.7649 7.13355 107.488 14.6709 117.223 26.5826C126.958 38.4942 131.284 53.5016 129.662 68.7781C128.04 84.0547 120.468 97.7161 108.502 107.407C98.1591 115.685 85.5174 120.126 72.4025 120.126ZM72.1997 7.20085C44.1446 7.20085 19.9428 28.3323 16.9007 56.7319C13.5881 87.1504 35.7618 114.54 66.3182 117.771C81.1232 119.386 95.6578 115.079 107.218 105.792C118.778 96.5047 126.079 83.2471 127.634 68.5762C130.946 38.1577 108.773 10.7676 78.2163 7.53734C76.1882 7.33545 74.2278 7.20085 72.1997 7.20085Z" fill="#010101"/>
<path d="M61.6537 116.223C59.558 116.223 57.4623 116.088 55.3666 115.886C40.0208 114.271 26.2975 106.734 16.5627 94.8223C6.89548 82.8433 2.5013 67.9032 4.12377 52.6267C5.74623 37.3501 13.3177 23.6887 25.2834 13.9979C37.3167 4.37432 52.3921 -2.53916e-05 67.6703 1.61512C83.0161 3.23026 96.7395 10.7676 106.474 22.6793C116.141 34.6582 120.536 49.5983 118.913 64.8748C117.291 80.1514 109.719 93.8128 97.7535 103.504C87.4103 111.781 74.7686 116.223 61.6537 116.223ZM61.4509 3.29756C48.8092 3.29756 36.6407 7.5373 26.6355 15.5457C15.0078 24.9001 7.77431 38.0904 6.15185 52.8286C4.52938 67.5667 8.85596 82.0357 18.1851 93.5436C27.5143 105.051 40.832 112.32 55.5694 113.867C70.3744 115.483 84.909 111.176 96.4691 101.889C108.029 92.6014 115.33 79.3438 116.885 64.673C118.508 49.9348 114.181 35.4658 104.852 23.9579C95.5226 12.45 82.2725 5.18189 67.4675 3.63404C65.4394 3.43215 63.4113 3.29756 61.4509 3.29756Z" fill="black"/>
<path d="M57.8003 122.145C55.7046 122.145 53.6089 122.011 51.5133 121.809C19.8752 118.444 -3.10972 90.0442 0.270411 58.5489C1.89288 43.2723 9.46438 29.6109 21.4301 19.9201C33.4633 10.2965 48.4711 5.92219 63.817 7.53733C79.1628 9.15247 92.8861 16.6898 102.621 28.6015C112.356 40.5131 116.682 55.5205 115.06 70.7971C113.437 86.0736 105.866 99.735 93.9002 109.426C83.5569 117.703 70.9152 122.145 57.8003 122.145ZM57.5975 9.21977C44.9558 9.21977 32.7873 13.4595 22.7821 21.4679C11.222 30.8223 3.92096 44.0126 2.36609 58.7508C-0.946438 89.1693 21.2272 116.559 51.7837 119.79C66.5887 121.405 81.1233 117.098 92.6833 107.811C104.243 98.5237 111.544 85.266 113.099 70.5952C114.722 55.857 110.395 41.388 101.066 29.8801C91.7369 18.3722 78.4191 11.1041 63.6817 9.55625C61.6537 9.35436 59.6256 9.21977 57.5975 9.21977Z" fill="black"/>
<path d="M65.3042 128C63.2085 128 61.1128 127.865 59.0172 127.664C27.3791 124.299 4.39418 95.8991 7.77431 64.4038C11.1544 32.9085 39.6828 10.0273 71.3209 13.3922C86.6667 15.0074 100.39 22.5447 110.125 34.4564C119.86 46.368 124.186 61.3754 122.564 76.652C120.941 91.9285 113.37 105.59 101.404 115.281C90.9932 123.558 78.4191 128 65.3042 128ZM65.1014 15.0747C37.0463 15.0747 12.8445 36.2061 9.80239 64.6057C6.48986 95.0242 28.6635 122.414 59.22 125.645C74.025 127.26 88.5595 122.953 100.12 113.666C111.68 104.379 118.981 91.1209 120.536 76.4501C123.848 46.0315 101.674 18.6414 71.118 15.4111C69.09 15.2093 67.1295 15.0747 65.1014 15.0747Z" fill="black"/>
<path d="M68.4815 114.944C66.3859 114.944 64.2902 114.81 62.1945 114.608C46.8487 112.993 33.1253 105.455 23.3905 93.5437C13.7233 81.5647 9.32917 66.6246 10.9516 51.3481C12.5741 36.0715 20.1456 22.4101 32.1113 12.7193C44.1446 3.0957 59.1524 -1.34594 74.4982 0.336504C89.844 1.95165 103.567 9.48897 113.302 21.4006C122.969 33.3796 127.363 48.3197 125.741 63.5962C124.119 78.8728 116.547 92.5342 104.581 102.225C94.2382 110.503 81.5965 114.944 68.4815 114.944ZM68.2787 2.01894C55.637 2.01894 43.4685 6.25869 33.4633 14.2671C21.9033 23.6215 14.6022 36.8118 13.0473 51.55C11.4249 66.2881 15.7514 80.7571 25.0806 92.265C34.4098 103.773 47.7275 111.041 62.4649 112.589C77.2699 114.204 91.8045 109.897 103.365 100.61C114.925 91.3228 122.226 78.0652 123.781 63.3943C125.403 48.6562 121.076 34.1872 111.747 22.6793C102.418 11.1714 89.168 3.90328 74.363 2.35543C72.3349 2.15354 70.3068 2.01894 68.2787 2.01894Z" fill="black"/>
<path d="M27.7171 70.8644C27.5143 70.8644 27.3791 70.7971 27.3115 70.7298C27.1763 70.5952 27.1763 70.4606 27.1763 70.326V53.8381C27.1763 53.6362 27.2439 53.5016 27.3115 53.367C27.3791 53.2324 27.5819 53.2324 27.7171 53.2324H34.1394C35.4238 53.2324 36.5055 53.4343 37.3843 53.8381C38.3307 54.2419 39.0068 54.8475 39.5476 55.6551C40.0884 56.4627 40.2912 57.4721 40.2912 58.6162C40.2912 59.8276 40.0208 60.837 39.5476 61.5773C39.0068 62.3849 38.3307 62.9905 37.3843 63.3943C36.4379 63.7981 35.3562 64 34.1394 64H29.6776V70.326C29.6776 70.5279 29.61 70.6625 29.5424 70.7298C29.4072 70.8644 29.272 70.8644 29.0692 70.8644H27.7171ZM29.61 61.9138H34.0042C35.2886 61.9138 36.1674 61.6446 36.8435 61.1062C37.4519 60.5678 37.7899 59.7603 37.7899 58.6835C37.7899 57.6067 37.4519 56.7992 36.9111 56.2608C36.3027 55.7224 35.3562 55.3859 34.0718 55.3859H29.6776V61.9138H29.61Z" fill="black"/>
<path d="M50.0936 71.1335C48.6739 71.1335 47.4571 70.8644 46.4431 70.3933C45.429 69.8549 44.6178 69.1146 44.077 68.1052C43.5361 67.0957 43.2657 65.6824 43.2657 64.0673V53.8381C43.2657 53.6362 43.3333 53.5016 43.4009 53.367C43.5361 53.2324 43.6713 53.2324 43.8066 53.2324H45.091C45.2938 53.2324 45.429 53.2997 45.5642 53.367C45.6994 53.5016 45.6994 53.6362 45.6994 53.8381V64.1346C45.6994 65.817 46.105 67.0284 46.8487 67.7687C47.5923 68.5089 48.6739 68.98 50.026 68.98C51.3781 68.98 52.3921 68.5762 53.2033 67.7687C54.0146 66.9611 54.3526 65.7497 54.3526 64.1346V53.8381C54.3526 53.6362 54.4202 53.5016 54.4878 53.367C54.623 53.2324 54.7582 53.2324 54.8934 53.2324H56.2454C56.4483 53.2324 56.5835 53.2997 56.6511 53.367C56.7863 53.5016 56.7863 53.6362 56.7863 53.8381V64.0673C56.7863 65.6824 56.5159 67.0284 55.975 68.0379C55.4342 69.0473 54.623 69.8549 53.6089 70.326C52.7301 70.8644 51.5133 71.1335 50.0936 71.1335Z" fill="black"/>
<path d="M61.7213 70.8644C61.5185 70.8644 61.3833 70.7971 61.3157 70.7298C61.1804 70.5952 61.1804 70.4606 61.1804 70.326V53.8381C61.1804 53.6362 61.248 53.5016 61.3157 53.4343C61.3833 53.2997 61.5861 53.2997 61.7213 53.2997H63.0733C63.2085 53.2997 63.4113 53.367 63.4789 53.4343C63.6141 53.5689 63.6141 53.7035 63.6141 53.8381V68.7108H72.0645C72.2673 68.7108 72.4025 68.7781 72.4701 68.8454C72.6053 68.98 72.6053 69.1146 72.6053 69.3165V70.326C72.6053 70.5279 72.5377 70.6625 72.4701 70.7298C72.3349 70.8644 72.1997 70.8644 72.0645 70.8644H61.7213Z" fill="black"/>
<path d="M81.1232 71.1336C79.636 71.1336 78.4191 70.9317 77.4051 70.4606C76.3911 69.9895 75.6474 69.4511 75.1066 68.7108C74.5658 67.9706 74.2954 67.2303 74.2278 66.4227C74.2278 66.2881 74.2954 66.1535 74.363 66.0862C74.4982 65.9516 74.6334 65.9516 74.7686 65.9516H76.053C76.2558 65.9516 76.3911 66.0189 76.5263 66.0862C76.6615 66.2208 76.7291 66.2881 76.7291 66.4227C76.7967 66.8265 76.9995 67.2303 77.3375 67.6341C77.6755 68.0379 78.1487 68.3744 78.7571 68.6435C79.3656 68.9127 80.1092 69.0473 81.0556 69.0473C82.5429 69.0473 83.5569 68.7781 84.233 68.3071C84.909 67.836 85.247 67.0957 85.247 66.2208C85.247 65.6152 85.0442 65.1441 84.7062 64.8076C84.3682 64.4711 83.7597 64.1346 83.0161 63.8654C82.2725 63.5962 81.326 63.2597 80.1092 62.9233C78.8924 62.5868 77.8783 62.183 77.0671 61.7792C76.2558 61.3754 75.6474 60.837 75.2418 60.2313C74.8362 59.6257 74.6334 58.8181 74.6334 57.8759C74.6334 57.0011 74.9038 56.1262 75.377 55.4532C75.8502 54.7129 76.5939 54.1746 77.4727 53.7708C78.4191 53.367 79.5008 53.1651 80.8528 53.1651C81.9345 53.1651 82.8133 53.2997 83.6245 53.5689C84.4358 53.8381 85.0442 54.2419 85.585 54.7129C86.1258 55.184 86.5315 55.6551 86.8019 56.1935C87.0723 56.7319 87.2075 57.2703 87.2075 57.7413C87.2075 57.8759 87.1399 57.9432 87.0723 58.0778C87.0047 58.2124 86.8695 58.2124 86.6667 58.2124H85.3146C85.1794 58.2124 85.0442 58.2124 84.9766 58.1451C84.8414 58.0778 84.7738 57.9432 84.7062 57.7413C84.571 57.0684 84.233 56.4627 83.5569 55.9916C82.8809 55.5205 82.0021 55.2513 80.9204 55.2513C79.8388 55.2513 78.96 55.4532 78.2163 55.857C77.5403 56.2608 77.2023 56.9338 77.2023 57.8086C77.2023 58.4143 77.3375 58.8854 77.6755 59.2219C78.0135 59.6257 78.4867 59.9622 79.2304 60.2313C79.9064 60.5005 80.8528 60.837 81.9345 61.1735C83.2865 61.51 84.3682 61.9138 85.247 62.3176C86.1258 62.7214 86.7343 63.2597 87.1399 63.8654C87.5455 64.4711 87.7483 65.2787 87.7483 66.2208C87.7483 67.2976 87.4779 68.1725 86.9371 68.9127C86.3963 69.653 85.585 70.2587 84.571 70.6625C83.6921 70.9317 82.5429 71.1336 81.1232 71.1336Z" fill="black"/>
<path d="M91.8045 70.8644C91.6017 70.8644 91.4665 70.7971 91.3989 70.7298C91.2636 70.5952 91.2636 70.4606 91.2636 70.326V53.8381C91.2636 53.6362 91.3312 53.5016 91.3989 53.367C91.4665 53.2324 91.6693 53.2324 91.8045 53.2324H102.283C102.486 53.2324 102.621 53.2997 102.689 53.367C102.824 53.5016 102.824 53.6362 102.824 53.8381V54.7802C102.824 54.9821 102.756 55.1167 102.689 55.184C102.621 55.2513 102.418 55.3186 102.283 55.3186H93.6297V60.837H101.674C101.877 60.837 102.012 60.9043 102.08 60.9716C102.215 61.1062 102.215 61.2408 102.215 61.4427V62.3849C102.215 62.5868 102.148 62.7214 102.08 62.7887C101.945 62.9232 101.81 62.9232 101.674 62.9232H93.6297V68.6435H102.486C102.689 68.6435 102.824 68.7108 102.891 68.7781C103.027 68.9127 103.027 69.0473 103.027 69.1819V70.1914C103.027 70.3933 102.959 70.5279 102.891 70.5952C102.824 70.7298 102.621 70.7298 102.486 70.7298H91.8045V70.8644Z" fill="black"/>
</g>
<defs>
<clipPath id="clip0_117_92">
<rect width="130" height="128" fill="white"/>
</clipPath>
</defs>
</svg>
