<svg width="222" height="220" viewBox="0 0 222 220" fill="none" xmlns="http://www.w3.org/2000/svg">
<g clip-path="url(#clip0_3_25)">
<path d="M114.059 212.019C110.48 212.019 106.902 211.788 103.323 211.441C77.117 208.665 53.6818 195.71 37.0577 175.237C20.4337 154.763 13.0452 128.97 15.8159 102.713C18.5866 76.4564 31.5164 52.9758 51.9501 36.3197C72.3838 19.6635 98.1279 12.2608 124.334 15.0368C150.54 17.8128 173.975 30.7676 190.599 51.2408C207.223 71.714 214.612 97.5079 211.841 123.764C209.07 150.021 196.14 173.502 175.707 190.158C158.044 204.501 136.456 212.019 114.059 212.019ZM113.713 18.0442C92.1248 18.0442 71.3448 25.3312 54.259 39.0957C34.4025 55.0578 22.0499 77.8444 19.3947 103.176C16.624 128.507 24.0125 153.375 39.9438 173.155C55.8752 192.934 78.6178 205.426 103.785 208.086C107.248 208.433 110.596 208.665 114.059 208.665C161.969 208.665 203.298 172.345 208.493 123.533C211.264 98.2019 203.875 73.3333 187.944 53.5542C172.012 33.775 149.27 21.2829 124.103 18.6225C120.64 18.1598 117.176 18.0442 113.713 18.0442Z" fill="white"/>
<path d="M123.641 206.467C120.062 206.467 116.484 206.236 112.905 205.889C58.8768 200.105 19.6256 151.293 25.3979 97.1609C31.1701 43.0284 79.8877 3.70136 133.916 9.48475C160.122 12.2608 183.557 25.2156 200.181 45.6887C216.805 66.1619 224.193 91.9558 221.423 118.212C218.652 144.469 205.722 167.95 185.289 184.606C167.626 198.833 146.037 206.467 123.641 206.467ZM123.295 12.3764C75.3854 12.3764 34.0562 48.6961 28.8612 97.5079C23.2044 149.79 61.0702 196.866 113.251 202.419C138.534 205.195 163.354 197.792 183.095 181.83C202.836 165.868 215.304 143.081 217.959 117.865C223.616 65.5836 185.75 18.5068 133.569 12.9548C130.106 12.6078 126.758 12.3764 123.295 12.3764Z" fill="white"/>
<path d="M105.286 199.758C101.707 199.758 98.128 199.527 94.5492 199.18C68.3432 196.404 44.908 183.449 28.284 162.976C11.7754 142.387 4.27148 116.709 7.04215 90.4522C9.81282 64.1956 22.7426 40.715 43.1763 24.0589C63.7255 7.5184 89.4696 2.14577e-06 115.56 2.77603C141.766 5.55205 165.201 18.5068 181.825 38.98C198.334 59.5689 205.838 85.2471 203.067 111.504C200.296 137.76 187.367 161.241 166.933 177.897C149.27 192.124 127.682 199.758 105.286 199.758ZM104.939 5.66772C83.351 5.66772 62.571 12.9548 45.4852 26.7192C25.6287 42.7971 13.2762 65.4679 10.5055 90.7992C7.73482 116.13 15.1233 140.999 31.0546 160.778C46.986 180.557 69.7286 193.049 94.8955 195.71C120.178 198.486 144.998 191.083 164.739 175.121C184.481 159.159 196.949 136.372 199.604 111.157C202.374 85.8255 194.986 60.9569 179.055 41.1777C163.123 21.3985 140.496 8.90642 115.214 6.24606C111.75 5.89906 108.287 5.66772 104.939 5.66772Z" fill="white"/>
<path d="M98.7052 209.937C95.1264 209.937 91.5476 209.706 87.9688 209.359C33.9408 203.575 -5.31041 154.763 0.461818 100.631C3.23249 74.3743 16.1623 50.8938 36.596 34.2376C57.1451 17.6972 82.7738 10.1788 108.98 12.9548C135.186 15.7308 158.621 28.6856 175.245 49.1588C191.869 69.632 199.257 95.4259 196.487 121.682C193.716 147.939 180.786 171.42 160.353 188.076C142.69 202.303 121.101 209.937 98.7052 209.937ZM98.3588 15.8465C76.7707 15.8465 55.9907 23.1335 38.9049 36.898C19.1638 52.9758 6.69583 75.6467 4.0406 100.978C-1.61619 153.26 36.2496 200.336 88.4306 205.889C113.713 208.665 138.534 201.262 158.275 185.3C178.016 169.338 190.484 146.551 193.139 121.335C195.91 96.0042 188.521 71.1357 172.59 51.3565C156.658 31.5773 133.916 19.0852 108.749 16.4248C105.286 16.0778 101.822 15.8465 98.3588 15.8465Z" fill="white"/>
<path d="M111.52 220C107.941 220 104.362 219.769 100.783 219.422C46.7551 213.638 7.50392 164.826 13.2761 110.694C19.0484 56.5615 67.766 17.2345 121.794 23.0179C148 25.7939 171.435 38.7487 188.059 59.2219C204.683 79.6951 212.072 105.489 209.301 131.746C206.53 158.002 193.601 181.483 173.167 198.139C155.388 212.366 133.916 220 111.52 220ZM111.173 25.9096C63.2637 25.9096 21.9345 62.2292 16.7395 111.041C11.0827 163.323 48.9485 210.4 101.129 215.952C126.412 218.728 151.232 211.325 170.973 195.363C190.715 179.401 203.183 156.614 205.838 131.399C211.495 79.1167 173.629 32.04 121.448 26.4879C117.984 26.1409 114.637 25.9096 111.173 25.9096Z" fill="white"/>
<path d="M116.945 197.56C113.367 197.56 109.788 197.329 106.209 196.982C80.0032 194.206 56.5679 181.251 39.9439 160.778C23.4353 140.189 15.9314 114.511 18.7021 88.2545C21.4727 61.9979 34.4025 38.5173 54.8362 21.8612C75.3854 5.32071 101.014 -2.31336 127.22 0.578337C153.426 3.35436 176.861 16.3091 193.485 36.7823C209.994 57.3712 217.498 83.0494 214.727 109.306C211.956 135.563 199.027 159.043 178.593 175.699C160.93 189.926 139.342 197.56 116.945 197.56ZM116.599 3.47003C95.0109 3.47003 74.2309 10.7571 57.1451 24.5216C37.4041 40.5994 24.9361 63.2702 22.2808 88.6015C19.5102 113.933 26.8986 138.801 42.83 158.58C58.7613 178.36 81.5039 190.852 106.671 193.512C131.953 196.288 156.774 188.885 176.515 172.923C196.256 156.961 208.724 134.175 211.379 108.959C214.15 83.6278 206.761 58.7592 190.83 38.98C174.899 19.2008 152.271 6.70873 126.989 4.04837C123.526 3.70137 120.062 3.47003 116.599 3.47003Z" fill="white"/>
<path d="M47.3322 121.798C46.9859 121.798 46.755 121.682 46.6396 121.567C46.4087 121.335 46.4087 121.104 46.4087 120.873V92.5342C46.4087 92.1872 46.5241 91.9558 46.6396 91.7245C46.755 91.4932 47.1014 91.4932 47.3322 91.4932H58.2995C60.4929 91.4932 62.34 91.8402 63.8408 92.5342C65.4571 93.2282 66.6115 94.2692 67.5351 95.6572C68.4586 97.0452 68.8049 98.7802 68.8049 100.747C68.8049 102.829 68.3432 104.564 67.5351 105.836C66.6115 107.224 65.4571 108.265 63.8408 108.959C62.2246 109.653 60.3775 110 58.2995 110H50.6801V120.873C50.6801 121.22 50.5647 121.451 50.4493 121.567C50.2184 121.798 49.9875 121.798 49.6411 121.798H47.3322ZM50.5647 106.414H58.0686C60.262 106.414 61.7628 105.952 62.9173 105.026C63.9563 104.101 64.5335 102.713 64.5335 100.862C64.5335 99.0116 63.9563 97.6236 63.0327 96.6982C61.9937 95.7729 60.3775 95.1945 58.184 95.1945H50.6801V106.414H50.5647Z" fill="white"/>
<path d="M85.5444 122.261C83.1201 122.261 81.0421 121.798 79.3104 120.988C77.5787 120.063 76.1934 118.791 75.2699 117.056C74.3463 115.321 73.8845 112.892 73.8845 110.116V92.5342C73.8845 92.1872 74 91.9558 74.1154 91.7245C74.3463 91.4932 74.5772 91.4932 74.8081 91.4932H77.0015C77.3479 91.4932 77.5788 91.6088 77.8096 91.7245C78.0405 91.9558 78.0405 92.1872 78.0405 92.5342V110.231C78.0405 113.123 78.7332 115.205 80.0031 116.477C81.273 117.75 83.1201 118.559 85.429 118.559C87.7379 118.559 89.4695 117.865 90.8549 116.477C92.2402 115.089 92.8174 113.007 92.8174 110.231V92.5342C92.8174 92.1872 92.9329 91.9558 93.0483 91.7245C93.2792 91.4932 93.5101 91.4932 93.741 91.4932H96.0499C96.3962 91.4932 96.6271 91.6088 96.7426 91.7245C96.9734 91.9558 96.9734 92.1872 96.9734 92.5342V110.116C96.9734 112.892 96.5117 115.205 95.5881 116.94C94.6646 118.675 93.2792 120.063 91.5476 120.873C90.0468 121.798 87.9688 122.261 85.5444 122.261Z" fill="white"/>
<path d="M105.401 121.798C105.055 121.798 104.824 121.682 104.708 121.567C104.477 121.335 104.477 121.104 104.477 120.873V92.5342C104.477 92.1872 104.593 91.9558 104.708 91.8402C104.824 91.6088 105.17 91.6088 105.401 91.6088H107.71C107.941 91.6088 108.287 91.7245 108.402 91.8402C108.633 92.0715 108.633 92.3028 108.633 92.5342V118.097H123.064C123.41 118.097 123.641 118.212 123.757 118.328C123.987 118.559 123.987 118.791 123.987 119.138V120.873C123.987 121.22 123.872 121.451 123.757 121.567C123.526 121.798 123.295 121.798 123.064 121.798H105.401Z" fill="white"/>
<path d="M138.534 122.261C135.994 122.261 133.916 121.914 132.184 121.104C130.452 120.294 129.183 119.369 128.259 118.097C127.335 116.824 126.874 115.552 126.758 114.164C126.758 113.933 126.874 113.701 126.989 113.586C127.22 113.354 127.451 113.354 127.682 113.354H129.875C130.222 113.354 130.452 113.47 130.683 113.586C130.914 113.817 131.03 113.933 131.03 114.164C131.145 114.858 131.491 115.552 132.069 116.246C132.646 116.94 133.454 117.518 134.493 117.981C135.532 118.444 136.802 118.675 138.418 118.675C140.958 118.675 142.69 118.212 143.844 117.403C144.998 116.593 145.576 115.321 145.576 113.817C145.576 112.776 145.229 111.966 144.652 111.388C144.075 110.81 143.036 110.231 141.766 109.769C140.496 109.306 138.88 108.728 136.802 108.149C134.724 107.571 132.992 106.877 131.607 106.183C130.222 105.489 129.183 104.564 128.49 103.523C127.797 102.482 127.451 101.094 127.451 99.4742C127.451 97.9706 127.913 96.4669 128.721 95.3102C129.529 94.0379 130.799 93.1125 132.3 92.4185C133.916 91.7245 135.763 91.3775 138.072 91.3775C139.919 91.3775 141.42 91.6088 142.805 92.0715C144.19 92.5342 145.229 93.2282 146.153 94.0379C147.076 94.8475 147.769 95.6572 148.231 96.5825C148.693 97.5079 148.924 98.4332 148.924 99.2429C148.924 99.4742 148.808 99.5899 148.693 99.8212C148.577 100.053 148.346 100.053 148 100.053H145.691C145.46 100.053 145.229 100.053 145.114 99.9369C144.883 99.8212 144.768 99.5899 144.652 99.2429C144.421 98.0862 143.844 97.0452 142.69 96.2355C141.535 95.4259 140.034 94.9632 138.187 94.9632C136.34 94.9632 134.839 95.3102 133.569 96.0042C132.415 96.6982 131.838 97.8549 131.838 99.3586C131.838 100.4 132.069 101.209 132.646 101.788C133.223 102.482 134.031 103.06 135.301 103.523C136.456 103.985 138.072 104.564 139.919 105.142C142.228 105.72 144.075 106.414 145.576 107.108C147.076 107.802 148.115 108.728 148.808 109.769C149.501 110.81 149.847 112.198 149.847 113.817C149.847 115.668 149.385 117.171 148.462 118.444C147.538 119.716 146.153 120.757 144.421 121.451C142.92 121.914 140.958 122.261 138.534 122.261Z" fill="white"/>
<path d="M156.774 121.798C156.427 121.798 156.197 121.682 156.081 121.567C155.85 121.335 155.85 121.104 155.85 120.873V92.5342C155.85 92.1872 155.966 91.9558 156.081 91.7245C156.197 91.4932 156.543 91.4932 156.774 91.4932H174.668C175.014 91.4932 175.245 91.6088 175.36 91.7245C175.591 91.9558 175.591 92.1872 175.591 92.5342V94.1535C175.591 94.5005 175.476 94.7319 175.36 94.8475C175.245 94.9632 174.899 95.0789 174.668 95.0789H159.891V104.564H173.629C173.975 104.564 174.206 104.679 174.321 104.795C174.552 105.026 174.552 105.258 174.552 105.605V107.224C174.552 107.571 174.437 107.802 174.321 107.918C174.09 108.149 173.86 108.149 173.629 108.149H159.891V117.981H175.014C175.36 117.981 175.591 118.097 175.707 118.212C175.938 118.444 175.938 118.675 175.938 118.906V120.641C175.938 120.988 175.822 121.22 175.707 121.335C175.591 121.567 175.245 121.567 175.014 121.567H156.774V121.798Z" fill="white"/>
</g>
<defs>
<clipPath id="clip0_3_25">
<rect width="222" height="220" fill="white"/>
</clipPath>
</defs>
</svg>
